<svg data-noselect="" viewBox="0 0 400 300" width="400" height="300" preserveAspectRatio="none" version="1.1" xmlns="http://www.w3.org/2000/svg" style="background: rgba(255, 255, 255, 0);"><defs></defs> <g id="shape_snsRbEfg5X" transform="translate(133.33333333333331,45.45454545454545) rotate(0,0,0) scale(1.5151515151515151,1.5151515151515151)" filter="" style="cursor: move; opacity: 1;"><g><rect fill="rgba(0,0,0,0)" width="108" height="118" x="-10" y="-10"></rect><svg xmlns="http://www.w3.org/2000/svg" xmlns:xlink="http://www.w3.org/1999/xlink" shape-rendering="auto" id="layer1" text-rendering="auto" width="88" contentscripttype="text/ecmascript" color-rendering="auto" color-interpolation="auto" xml:space="preserve" preserveAspectRatio="none" viewBox="0 0 88.405 98.643" image-rendering="auto" zoomAndPan="magnify" version="1.1" contentstyletype="text/css" x="0px" enable-background="new 0 0 88.405 98.643" height="98" y="0px" data-parent="shape_snsRbEfg5X">
 <g fill="#92308D">
  <path clip-rule="evenodd" d="M19.465,3h62.94v6.373H73.43v41.362L45.789,92.446   c0,0-39.836,3.578-42.541-19.809c0,0-2.176-11.957,6.365-15.883c8.543-3.926,15.342-1.484,17.523,0.264   c2.182,1.744,7.76,6.632,4.797,15.881c0,0-3.663,7.94-10.988,8.288l-0.521,1.573c0,0,1.567,1.045,2.877,0.871   c1.306-0.174,9.001-0.81,12.989-10.908c2.789-7.067-2.704-14.92-4.184-15.27V9.981L19.454,9.926L19.465,3L19.465,3L19.465,3z" fill-rule="evenodd"></path>
 </g>
 <!--Copyright (c) Logomaker.com.cn  @2015-05-31-->
</svg></g> <!----></g><g id="shapge_YohJAXoNI3" transform="translate(141.66666666666666,203.03030303030303) rotate(0,0,0) scale(1.5151515151515151,1.5151515151515151)" filter="" style="cursor: move; opacity: 1;"><g><svg xmlns="http://www.w3.org/2000/svg" version="1.1" xmlns:xlink="http://www.w3.org/1999/xlink" overflow="hidden" style="top:0; left: 0" width="77" height="34" viewBox="0 0 77.836 34.104" preserveAspectRatio="none" data-parent="shapge_YohJAXoNI3"><rect fill="rgba(0,0,0,0)" width="77" height="34"></rect> <rect opacity="0"></rect><g transform="translate(0 0)" data-width="77.836"><path fill="#92308D" d="M6.87 0.38L6.87 0.38L6.87 0.38Q2.84 0.38 1.02-2.99L1.02-2.99L2.93-4.35L2.93-4.35Q4.32-1.97 6.61-1.97L6.61-1.97L6.61-1.97Q8.32-1.97 9.18-3.03L9.18-3.03L9.18-3.03Q10.03-4.09 10.03-6.50L10.03-6.50L10.03-21.26L12.70-21.26L12.70-6.24L12.70-6.24Q12.70-4.41 12.11-2.91L12.11-2.91L12.11-2.91Q11.51-1.42 10.24-0.52L10.24-0.52L10.24-0.52Q8.96 0.38 6.87 0.38Z" transform="translate(0 25.52)"></path><path fill="#92308D" d="M6.79 0.38L6.79 0.38L6.79 0.38Q5.10 0.38 3.58-0.23L3.58-0.23L3.58-0.23Q2.06-0.84 0.90-1.80L0.90-1.80L2.20-3.54L2.20-3.54Q3.22-2.70 4.34-2.19L4.34-2.19L4.34-2.19Q5.45-1.68 6.87-1.68L6.87-1.68L6.87-1.68Q8.44-1.68 9.21-2.41L9.21-2.41L9.21-2.41Q9.98-3.13 9.98-4.15L9.98-4.15L9.98-4.15Q9.98-4.96 9.44-5.50L9.44-5.50L9.44-5.50Q8.90-6.03 8.09-6.42L8.09-6.42L8.09-6.42Q7.28-6.82 6.38-7.13L6.38-7.13L6.38-7.13Q5.25-7.54 4.18-8.09L4.18-8.09L4.18-8.09Q3.10-8.64 2.39-9.50L2.39-9.50L2.39-9.50Q1.68-10.35 1.68-11.69L1.68-11.69L1.68-11.69Q1.68-13.57 3.12-14.86L3.12-14.86L3.12-14.86Q4.55-16.15 7.11-16.15L7.11-16.15L7.11-16.15Q8.55-16.15 9.82-15.63L9.82-15.63L9.82-15.63Q11.08-15.11 12.01-14.38L12.01-14.38L10.73-12.67L10.73-12.67Q9.92-13.28 9.05-13.67L9.05-13.67L9.05-13.67Q8.18-14.07 7.11-14.07L7.11-14.07L7.11-14.07Q5.63-14.07 4.93-13.40L4.93-13.40L4.93-13.40Q4.23-12.73 4.23-11.80L4.23-11.80L4.23-11.80Q4.23-11.08 4.68-10.61L4.68-10.61L4.68-10.61Q5.13-10.15 5.86-9.82L5.86-9.82L5.86-9.82Q6.58-9.48 7.42-9.19L7.42-9.19L7.42-9.19Q7.57-9.13 7.71-9.08L7.71-9.08L7.71-9.08Q8.87-8.67 9.98-8.12L9.98-8.12L9.98-8.12Q11.08-7.57 11.80-6.68L11.80-6.68L11.80-6.68Q12.53-5.80 12.53-4.29L12.53-4.29L12.53-4.29Q12.53-2.38 11.05-1.00L11.05-1.00L11.05-1.00Q9.57 0.38 6.79 0.38Z" transform="translate(15.544 25.52)"></path><path fill="#92308D" d="M8.79 0.38L8.79 0.38L8.79 0.38Q6.87 0.38 5.21-0.59L5.21-0.59L5.21-0.59Q3.54-1.57 2.51-3.41L2.51-3.41L2.51-3.41Q1.48-5.25 1.48-7.86L1.48-7.86L1.48-7.86Q1.48-10.50 2.51-12.34L2.51-12.34L2.51-12.34Q3.54-14.18 5.21-15.17L5.21-15.17L5.21-15.17Q6.87-16.15 8.79-16.15L8.79-16.15L8.79-16.15Q10.73-16.15 12.38-15.17L12.38-15.17L12.38-15.17Q14.04-14.18 15.07-12.34L15.07-12.34L15.07-12.34Q16.10-10.50 16.10-7.86L16.10-7.86L16.10-7.86Q16.10-5.25 15.07-3.41L15.07-3.41L15.07-3.41Q14.04-1.57 12.38-0.59L12.38-0.59L12.38-0.59Q10.73 0.38 8.79 0.38ZM8.79-1.83L8.79-1.83L8.79-1.83Q10.85-1.83 12.11-3.48L12.11-3.48L12.11-3.48Q13.37-5.13 13.37-7.86L13.37-7.86L13.37-7.86Q13.37-10.59 12.11-12.27L12.11-12.27L12.11-12.27Q10.85-13.95 8.79-13.95L8.79-13.95L8.79-13.95Q6.76-13.95 5.50-12.27L5.50-12.27L5.50-12.27Q4.23-10.59 4.23-7.86L4.23-7.86L4.23-7.86Q4.23-5.13 5.50-3.48L5.50-3.48L5.50-3.48Q6.76-1.83 8.79-1.83Z" transform="translate(29.116 25.52)"></path><path fill="#92308D" d="M6.79 0.38L6.79 0.38L6.79 0.38Q5.10 0.38 3.58-0.23L3.58-0.23L3.58-0.23Q2.06-0.84 0.90-1.80L0.90-1.80L2.20-3.54L2.20-3.54Q3.22-2.70 4.34-2.19L4.34-2.19L4.34-2.19Q5.45-1.68 6.87-1.68L6.87-1.68L6.87-1.68Q8.44-1.68 9.21-2.41L9.21-2.41L9.21-2.41Q9.98-3.13 9.98-4.15L9.98-4.15L9.98-4.15Q9.98-4.96 9.44-5.50L9.44-5.50L9.44-5.50Q8.90-6.03 8.09-6.42L8.09-6.42L8.09-6.42Q7.28-6.82 6.38-7.13L6.38-7.13L6.38-7.13Q5.25-7.54 4.18-8.09L4.18-8.09L4.18-8.09Q3.10-8.64 2.39-9.50L2.39-9.50L2.39-9.50Q1.68-10.35 1.68-11.69L1.68-11.69L1.68-11.69Q1.68-13.57 3.12-14.86L3.12-14.86L3.12-14.86Q4.55-16.15 7.11-16.15L7.11-16.15L7.11-16.15Q8.55-16.15 9.82-15.63L9.82-15.63L9.82-15.63Q11.08-15.11 12.01-14.38L12.01-14.38L10.73-12.67L10.73-12.67Q9.92-13.28 9.05-13.67L9.05-13.67L9.05-13.67Q8.18-14.07 7.11-14.07L7.11-14.07L7.11-14.07Q5.63-14.07 4.93-13.40L4.93-13.40L4.93-13.40Q4.23-12.73 4.23-11.80L4.23-11.80L4.23-11.80Q4.23-11.08 4.68-10.61L4.68-10.61L4.68-10.61Q5.13-10.15 5.86-9.82L5.86-9.82L5.86-9.82Q6.58-9.48 7.42-9.19L7.42-9.19L7.42-9.19Q7.57-9.13 7.71-9.08L7.71-9.08L7.71-9.08Q8.87-8.67 9.98-8.12L9.98-8.12L9.98-8.12Q11.08-7.57 11.80-6.68L11.80-6.68L11.80-6.68Q12.53-5.80 12.53-4.29L12.53-4.29L12.53-4.29Q12.53-2.38 11.05-1.00L11.05-1.00L11.05-1.00Q9.57 0.38 6.79 0.38Z" transform="translate(46.69 25.52)"></path><path fill="#92308D" d="M8.79 0.38L8.79 0.38L8.79 0.38Q6.87 0.38 5.21-0.59L5.21-0.59L5.21-0.59Q3.54-1.57 2.51-3.41L2.51-3.41L2.51-3.41Q1.48-5.25 1.48-7.86L1.48-7.86L1.48-7.86Q1.48-10.50 2.51-12.34L2.51-12.34L2.51-12.34Q3.54-14.18 5.21-15.17L5.21-15.17L5.21-15.17Q6.87-16.15 8.79-16.15L8.79-16.15L8.79-16.15Q10.73-16.15 12.38-15.17L12.38-15.17L12.38-15.17Q14.04-14.18 15.07-12.34L15.07-12.34L15.07-12.34Q16.10-10.50 16.10-7.86L16.10-7.86L16.10-7.86Q16.10-5.25 15.07-3.41L15.07-3.41L15.07-3.41Q14.04-1.57 12.38-0.59L12.38-0.59L12.38-0.59Q10.73 0.38 8.79 0.38ZM8.79-1.83L8.79-1.83L8.79-1.83Q10.85-1.83 12.11-3.48L12.11-3.48L12.11-3.48Q13.37-5.13 13.37-7.86L13.37-7.86L13.37-7.86Q13.37-10.59 12.11-12.27L12.11-12.27L12.11-12.27Q10.85-13.95 8.79-13.95L8.79-13.95L8.79-13.95Q6.76-13.95 5.50-12.27L5.50-12.27L5.50-12.27Q4.23-10.59 4.23-7.86L4.23-7.86L4.23-7.86Q4.23-5.13 5.50-3.48L5.50-3.48L5.50-3.48Q6.76-1.83 8.79-1.83Z" transform="translate(60.262 25.52)"></path></g></svg></g> <!----></g>  <!----></svg>